# xmcd
#
# Track frame offsets:
#	150
#	12229
#	25130
#	38435
#	51014
#	60035
#	74117
#	84426
#	95214
#	108411
#	120216
#	131833
#	143700
#	153145
#	165035
#	175433
#	185688
#	197627
#	211002
#
# Disc length: 3010 seconds
# Revision: 0
# Processed by: cddbd v1.5.2PL0 Copyright (c) Steve Scherf et al.
# Submitted via: dBpowerAMP V12.0
#
DISCID=f10bc013
DTITLE=Wayne Horsborurgh - Singing Cowboy
DYEAR=1900
DGENRE=
TTITLE0=1.	Ghost Riders In The Sky 
TTITLE1=2.	Empty Saddles 
TTITLE2=3.	Hoppy, Gene And Me 
TTITLE3=4.	Back In The Saddle Again 
TTITLE4=5.	Cattle Call 
TTITLE5=6.	Cool Water 
TTITLE6=7.	Timber Trail 
TTITLE7=8.	Ridin' Down The Canyon 
TTITLE8=9.	Singing Cowboy 
TTITLE9=10.	Tumbling Tumbleweed 
TTITLE10=11.	Red River Valley 
TTITLE11=12.	The Last Round-Up 
TTITLE12=13.	Whoopie Ti Yi Yo 
TTITLE13=14.	South Of The Border 
TTITLE14=15.	Cowboy's Dream 
TTITLE15=16.	Happy Trails 
TTITLE16=17.	There’s A Rainbow In Every Teardrop
TTITLE17=18.	I’m Casting My Lasso Towards The Sky
TTITLE18=19.	King Of The Cowboys
EXTD=
EXTT0=
EXTT1=
EXTT2=
EXTT3=
EXTT4=
EXTT5=
EXTT6=
EXTT7=
EXTT8=
EXTT9=
EXTT10=
EXTT11=
EXTT12=
EXTT13=
EXTT14=
EXTT15=
EXTT16=
EXTT17=
EXTT18=
PLAYORDER=
